<mxfile host="app.diagrams.net" modified="2021-01-09T07:20:26.439Z" agent="5.0 (Macintosh; Intel Mac OS X 10_15_7) AppleWebKit/537.36 (KHTML, like Gecko) Chrome/87.0.4280.88 Safari/537.36" etag="wu3PZEYvMwGbgzxZ8MZ7" version="13.11.0" type="github">
  <diagram id="omYaurFZXgyc5t517hGe" name="Page-1">
    <mxGraphModel dx="1248" dy="539" grid="1" gridSize="10" guides="1" tooltips="1" connect="1" arrows="1" fold="1" page="1" pageScale="1" pageWidth="827" pageHeight="1169" math="0" shadow="0">
      <root>
        <mxCell id="0" />
        <mxCell id="1" parent="0" />
        <mxCell id="ZijoLYw8PKx7KzRA9UuD-6" style="edgeStyle=orthogonalEdgeStyle;rounded=0;orthogonalLoop=1;jettySize=auto;html=1;exitX=1;exitY=0.5;exitDx=0;exitDy=0;entryX=0;entryY=0.5;entryDx=0;entryDy=0;" edge="1" parent="1" source="ZijoLYw8PKx7KzRA9UuD-1" target="ZijoLYw8PKx7KzRA9UuD-4">
          <mxGeometry relative="1" as="geometry" />
        </mxCell>
        <mxCell id="ZijoLYw8PKx7KzRA9UuD-9" value="invoke" style="edgeLabel;html=1;align=center;verticalAlign=middle;resizable=0;points=[];" vertex="1" connectable="0" parent="ZijoLYw8PKx7KzRA9UuD-6">
          <mxGeometry x="-0.1167" y="-3" relative="1" as="geometry">
            <mxPoint as="offset" />
          </mxGeometry>
        </mxCell>
        <mxCell id="ZijoLYw8PKx7KzRA9UuD-1" value="服务A" style="rounded=0;whiteSpace=wrap;html=1;fillColor=#FFCCFF;" vertex="1" parent="1">
          <mxGeometry x="240" y="120" width="120" height="40" as="geometry" />
        </mxCell>
        <mxCell id="ZijoLYw8PKx7KzRA9UuD-7" style="edgeStyle=orthogonalEdgeStyle;rounded=0;orthogonalLoop=1;jettySize=auto;html=1;exitX=1;exitY=0.5;exitDx=0;exitDy=0;entryX=0;entryY=0.5;entryDx=0;entryDy=0;" edge="1" parent="1" source="ZijoLYw8PKx7KzRA9UuD-2" target="ZijoLYw8PKx7KzRA9UuD-5">
          <mxGeometry relative="1" as="geometry" />
        </mxCell>
        <mxCell id="ZijoLYw8PKx7KzRA9UuD-10" value="invoke" style="edgeLabel;html=1;align=center;verticalAlign=middle;resizable=0;points=[];" vertex="1" connectable="0" parent="ZijoLYw8PKx7KzRA9UuD-7">
          <mxGeometry x="-0.15" y="-2" relative="1" as="geometry">
            <mxPoint as="offset" />
          </mxGeometry>
        </mxCell>
        <mxCell id="ZijoLYw8PKx7KzRA9UuD-2" value="服务B" style="rounded=0;whiteSpace=wrap;html=1;fillColor=#99CCFF;" vertex="1" parent="1">
          <mxGeometry x="240" y="200" width="120" height="40" as="geometry" />
        </mxCell>
        <mxCell id="ZijoLYw8PKx7KzRA9UuD-8" style="edgeStyle=orthogonalEdgeStyle;rounded=0;orthogonalLoop=1;jettySize=auto;html=1;exitX=1;exitY=0.5;exitDx=0;exitDy=0;" edge="1" parent="1" source="ZijoLYw8PKx7KzRA9UuD-3" target="ZijoLYw8PKx7KzRA9UuD-5">
          <mxGeometry relative="1" as="geometry" />
        </mxCell>
        <mxCell id="ZijoLYw8PKx7KzRA9UuD-11" value="invoke" style="edgeLabel;html=1;align=center;verticalAlign=middle;resizable=0;points=[];" vertex="1" connectable="0" parent="ZijoLYw8PKx7KzRA9UuD-8">
          <mxGeometry x="-0.275" relative="1" as="geometry">
            <mxPoint as="offset" />
          </mxGeometry>
        </mxCell>
        <mxCell id="ZijoLYw8PKx7KzRA9UuD-3" value="服务C" style="rounded=0;whiteSpace=wrap;html=1;fillColor=#99CCFF;" vertex="1" parent="1">
          <mxGeometry x="240" y="280" width="120" height="40" as="geometry" />
        </mxCell>
        <mxCell id="ZijoLYw8PKx7KzRA9UuD-4" value="服务D（分组1）" style="rounded=0;whiteSpace=wrap;html=1;fillColor=#FFCCFF;" vertex="1" parent="1">
          <mxGeometry x="480" y="120" width="120" height="40" as="geometry" />
        </mxCell>
        <mxCell id="ZijoLYw8PKx7KzRA9UuD-5" value="服务D（分组2）" style="rounded=0;whiteSpace=wrap;html=1;fillColor=#99CCFF;" vertex="1" parent="1">
          <mxGeometry x="480" y="200" width="120" height="40" as="geometry" />
        </mxCell>
      </root>
    </mxGraphModel>
  </diagram>
</mxfile>
